<svg height="512pt" viewBox="0 0 512.00038 512" width="512pt" xmlns="http://www.w3.org/2000/svg"><path d="m163.183594 367.492188c7.179687.835937 14.398437 1.253906 21.628906 1.253906 35.359375.003906 69.957031-10.261719 99.589844-29.554688l23.546875 23.554688 137.300781 137.261718c14.898438 15.421876 39.476562 15.851563 54.898438.953126 15.421874-14.894532 15.847656-39.472657.953124-54.894532-.3125-.324218-.628906-.644531-.953124-.957031l-160.847657-160.84375c55.171875-85.570313 30.53125-199.660156-55.039062-254.832031-85.566407-55.167969-199.65625-30.527344-254.828125 55.039062-55.167969 85.566406-30.527344 199.65625 55.039062 254.828125 23.730469 15.300781 50.660156 24.945313 78.710938 28.191407zm164.59375-67.300782 14.5625 14.558594-27.449219 27.449219-14.550781-14.550781c10.082031-8.167969 19.277344-17.371094 27.4375-27.457032zm164.332031 172.367188c.015625 5.152344-2.03125 10.09375-5.6875 13.726562-7.675781 7.335938-19.769531 7.335938-27.445313 0l-130.402343-130.402344 27.449219-27.445312 130.398437 130.398438c3.65625 3.628906 5.703125 8.574218 5.6875 13.722656zm-471.5625-307.28125c10.507813-90.519532 92.40625-155.378906 182.929687-144.871094 90.519532 10.507812 155.378907 92.40625 144.871094 182.929688-10.507812 90.519531-92.410156 155.378906-182.929687 144.871093-90.46875-10.601562-155.28125-92.4375-144.871094-182.929687zm0 0"/><path d="m106.113281 85.386719c26.1875-20.863281 59.640625-30.375 92.886719-26.417969 5.339844.472656 10.050781-3.472656 10.523438-8.8125.457031-5.136719-3.183594-9.730469-8.289063-10.464844-79.871094-9.277344-152.140625 47.945313-161.421875 127.816406v.003907c-.816406 6.910156-1.140625 13.871093-.96875 20.828125.140625 5.257812 4.445312 9.445312 9.703125 9.441406h.261719c5.359375-.140625 9.585937-4.597656 9.445312-9.957031-.152344-6.03125.117188-12.066407.804688-18.0625 3.785156-33.28125 20.730468-63.664063 47.054687-84.375zm0 0"/><path d="m210.394531 198.347656c-2.472656-1.082031-5.085937-1.804687-7.765625-2.15625-8.875-.976562-17.710937 2.183594-23.953125 8.570313l-33.882812-15.839844c1.703125-15.992187-9.878907-30.335937-25.867188-32.039063-15.992187-1.703124-30.335937 9.878907-32.042969 25.867188-.710937 6.703125.921876 13.449219 4.625 19.082031l-17.878906 23.226563c-3.175781 4.316406-2.253906 10.390625 2.066406 13.570312 4.1875 3.078125 10.058594 2.3125 13.316407-1.738281l17.773437-23.101563c1.851563.601563 3.761719 1.019532 5.695313 1.242188 1.125.136719 2.253906.203125 3.386719.203125 7.765624-.035156 15.191406-3.179687 20.617187-8.734375l33.84375 15.820312c-1.53125 15.769532 9.832031 29.871094 25.566406 31.730469 1.121094.132813 2.246094.203125 3.375.203125 16.046875.023438 29.070313-12.964844 29.09375-29.011718.003907-4.855469-1.207031-9.640626-3.527343-13.910157l19.257812-21.265625c14.328125 6.457032 31.179688.074219 37.632812-14.257812 1.472657-3.265625 2.3125-6.777344 2.480469-10.355469l24.070313-6.53125c5.175781-1.40625 8.234375-6.738281 6.828125-11.914063-1.402344-5.175781-6.738281-8.234374-11.914063-6.828124l-24.039062 6.53125c-9.023438-13.226563-27.058594-16.636719-40.289063-7.617188-12.320312 8.40625-16.257812 24.785156-9.097656 37.871094zm-95.671875-2.59375c-5.324218-.632812-9.125-5.460937-8.492187-10.78125.578125-4.871094 4.695312-8.542968 9.597656-8.5625.378906 0 .753906.019532 1.128906.058594 5.324219.617188 9.140625 5.433594 8.523438 10.757812-.613281 5.328126-5.429688 9.144532-10.757813 8.527344zm90.558594 36.972656c-4.207031 3.320313-10.3125 2.601563-13.632812-1.609374-3.320313-4.207032-2.601563-10.308594 1.605468-13.628907 1.703125-1.347656 3.808594-2.082031 5.980469-2.089843.382813.003906.765625.027343 1.144531.070312 5.320313.636719 9.117188 5.472656 8.476563 10.792969-.304688 2.550781-1.609375 4.875-3.625 6.464843zm40.539062-71.601562c1.164063-5.234375 6.347657-8.535156 11.578126-7.375 5.234374 1.160156 8.535156 6.34375 7.375 11.578125-1.160157 5.230469-6.34375 8.535156-11.578126 7.375-2.511718-.558594-4.699218-2.089844-6.082031-4.261719-1.382812-2.171875-1.847656-4.804687-1.292969-7.316406zm0 0"/></svg>